<?xml version="1.0" encoding="UTF-8"?>
<svg id="Capa_1" xmlns="http://www.w3.org/2000/svg" version="1.1" viewBox="0 0 1920 1080">
  <!-- Generator: Adobe Illustrator 29.3.1, SVG Export Plug-In . SVG Version: 2.1.0 Build 151)  -->
  <defs>
    <style>
      .st0 {
        font-family: Montserrat-Bold, Montserrat;
        font-weight: 700;
      }

      .st0, .st1, .st2 {
        isolation: isolate;
      }

      .st0, .st3, .st2 {
        fill: #fff;
      }

      .st0, .st2 {
        font-size: 27.86px;
      }

      .st4 {
        fill: none;
        stroke: #ff7900;
        stroke-miterlimit: 10;
        stroke-width: 2px;
      }

      .st2 {
        font-family: Montserrat-Medium, Montserrat;
        font-weight: 500;
      }
    </style>
  </defs>
  <g>
    <path class="st3" d="M793.27,570.3c0,6.31-2.36,11.3-7.09,14.95-4.22,3.22-9.44,4.83-15.67,4.83s-11.53-1.61-15.67-4.83c-4.68-3.58-7.01-8.57-7.01-14.95v-40.71h18.03v39.14c0,3.1,1.55,4.65,4.65,4.65s4.73-1.55,4.73-4.65v-39.14h18.03v40.71h0Z"/>
    <path class="st3" d="M849.1,589.48h-18.03l-16.78-27.5v27.5h-18.03v-59.9h16.86l17.95,28.82v-28.82h18.03v59.9h0Z"/>
    <path class="st3" d="M888.77,589.48h-36.21v-59.9h36.21v14.95h-18.18v7.73h17.24v14.95h-17.24v7.24h18.18v15.03Z"/>
    <path class="st3" d="M962.14,589.48h-18.11l-4.55-30.32-7.4,30.32h-10.25l-8.11-30.32-4.88,30.32h-18.11l10.55-59.9h18.51l6.84,26.41,7.09-26.41h18.18l10.22,59.9h.02,0Z"/>
    <path class="st3" d="M983.1,589.48h-18.11v-59.9h18.11v59.9Z"/>
    <path class="st3" d="M749.06,596.84v5.83c0,1.18.56,2.71,2.27,2.71s2.27-1.53,2.27-2.71v-5.83h1.22v6.03c0,2.2-1.51,3.72-3.49,3.72s-3.49-1.52-3.49-3.72v-6.03h1.22Z"/>
    <path class="st3" d="M757.48,596.84h1.6l4.97,7.82h.03v-7.82h1.22v9.52h-1.55l-5.02-7.82h-.03v7.82h-1.22v-9.52h0Z"/>
    <path class="st3" d="M768.14,596.84h1.22v9.52h-1.22v-9.52Z"/>
    <path class="st3" d="M770.95,596.84h1.41l2.65,7.74h.03l2.75-7.74h1.34l-3.55,9.52h-1.15l-3.48-9.52h0Z"/>
    <path class="st3" d="M780.72,596.84h5.82v1.21h-4.6v2.84h4.28v1.21h-4.28v3.05h4.83v1.21h-6.05v-9.52h0Z"/>
    <path class="st3" d="M789.02,596.84h3.17c2.3,0,2.89,1.47,2.89,2.66s-.85,2.35-2.22,2.51l2.56,4.34h-1.53l-2.29-4.19h-1.36v4.19h-1.22v-9.52h0ZM790.24,601.03h1.6c.97,0,1.94-.24,1.94-1.53s-.97-1.53-1.94-1.53h-1.6v3.07h0Z"/>
    <path class="st3" d="M797.58,604.37c.43.7,1.18,1.02,1.91,1.02.8,0,1.8-.54,1.8-1.59,0-2.19-4.44-.83-4.44-4.54,0-1.12.89-2.66,3.06-2.66.98,0,1.92.22,2.6,1.09l-.99.96c-.31-.5-.9-.84-1.6-.84-1.35,0-1.76.86-1.76,1.45,0,2.41,4.44.97,4.44,4.4,0,1.84-1.4,2.94-3.13,2.94-1.16,0-2.27-.42-2.88-1.32l1.01-.91h-.02,0Z"/>
    <path class="st3" d="M804.9,596.84h1.22v9.52h-1.22v-9.52Z"/>
    <path class="st3" d="M808.75,596.84h3.14c3.81,0,4.74,3,4.74,4.76,0,2.43-1.72,4.76-4.94,4.76h-2.94v-9.52ZM809.98,605.15h1.54c2.06,0,3.82-1.19,3.82-3.55,0-1.21-.6-3.55-3.53-3.55h-1.83v7.1h0Z"/>
    <path class="st3" d="M821.73,596.84h1.11l3.86,9.52h-1.43l-.91-2.35h-4.29l-.89,2.35h-1.43l3.97-9.52h.01ZM823.93,602.87l-1.68-4.37h-.02l-1.71,4.37h3.41Z"/>
    <path class="st3" d="M828.18,596.84h3.15c3.81,0,4.74,3,4.74,4.76,0,2.43-1.72,4.76-4.94,4.76h-2.94v-9.52h-.01ZM829.41,605.15h1.54c2.06,0,3.82-1.19,3.82-3.55,0-1.21-.6-3.55-3.53-3.55h-1.83v7.1h0Z"/>
    <path class="st3" d="M842.39,596.84h5.82v1.21h-4.6v2.84h4.28v1.21h-4.28v3.05h4.83v1.21h-6.05v-9.52h0Z"/>
    <path class="st3" d="M850.95,604.37c.43.7,1.19,1.02,1.91,1.02.8,0,1.79-.54,1.79-1.59,0-2.19-4.44-.83-4.44-4.54,0-1.12.89-2.66,3.06-2.66.98,0,1.92.22,2.6,1.09l-.99.96c-.31-.5-.91-.84-1.61-.84-1.35,0-1.76.86-1.76,1.45,0,2.41,4.44.97,4.44,4.4,0,1.84-1.4,2.94-3.13,2.94-1.16,0-2.27-.42-2.88-1.32l1-.91h.01Z"/>
    <path class="st3" d="M860.16,598.05h-2.9v-1.21h7.03v1.21h-2.9v8.31h-1.22v-8.31h-.01Z"/>
    <path class="st3" d="M867.76,596.84h1.11l3.86,9.52h-1.43l-.9-2.35h-4.29l-.89,2.35h-1.43l3.98-9.52h0ZM869.94,602.87l-1.68-4.37h-.03l-1.71,4.37h3.42Z"/>
    <path class="st3" d="M875.12,598.05h-2.9v-1.21h7.03v1.21h-2.9v8.31h-1.22v-8.31h-.01Z"/>
    <path class="st3" d="M882.71,596.84h1.11l3.86,9.52h-1.43l-.9-2.35h-4.29l-.89,2.35h-1.43l3.97-9.52h0ZM884.9,602.87l-1.68-4.37h-.03l-1.71,4.37h3.42Z"/>
    <path class="st3" d="M889.37,596.84h1.22v8.31h4.14v1.21h-5.36v-9.52Z"/>
    <path class="st3" d="M900.34,596.84h3.14c3.81,0,4.74,3,4.74,4.76,0,2.43-1.72,4.76-4.94,4.76h-2.94v-9.52ZM901.56,605.15h1.54c2.06,0,3.82-1.19,3.82-3.55,0-1.21-.6-3.55-3.53-3.55h-1.83v7.1h0Z"/>
    <path class="st3" d="M910.49,596.84h5.82v1.21h-4.6v2.84h4.28v1.21h-4.28v3.05h4.83v1.21h-6.05v-9.52h0Z"/>
    <path class="st3" d="M922.75,596.84h1.82l2.86,7.21h.05l2.84-7.21h1.82v9.52h-1.22v-7.82h-.03l-3.04,7.82h-.81l-3.04-7.82h-.02v7.82h-1.22v-9.52h-.01Z"/>
    <path class="st3" d="M934.89,596.84h1.22v9.52h-1.22v-9.52Z"/>
    <path class="st3" d="M938.94,596.84h1.22v8.31h4.14v1.21h-5.36v-9.52Z"/>
    <path class="st3" d="M948.89,596.84h1.11l3.86,9.52h-1.43l-.9-2.35h-4.29l-.89,2.35h-1.43l3.97-9.52h0ZM951.08,602.87l-1.68-4.37h-.03l-1.71,4.37h3.42Z"/>
    <path class="st3" d="M963.22,601.03v4.69c-.88.56-2.32.87-3.41.87-3.06,0-4.83-2.3-4.83-5s1.95-5,4.7-5c1.66,0,2.66.47,3.36,1.24l-.87.98c-.74-.75-1.59-1.01-2.5-1.01-2.06,0-3.4,1.71-3.4,3.79s1.51,3.79,3.5,3.79c.85,0,1.67-.17,2.22-.5v-2.65h-2v-1.21h3.23Z"/>
    <path class="st3" d="M965.97,596.84h3.17c2.31,0,2.89,1.47,2.89,2.66s-.85,2.35-2.22,2.51l2.56,4.34h-1.53l-2.29-4.19h-1.36v4.19h-1.22v-9.52h0ZM967.19,601.03h1.6c.97,0,1.94-.24,1.94-1.53s-.97-1.53-1.94-1.53h-1.6v3.07h0Z"/>
    <path class="st3" d="M973.7,601.6c0-2.82,1.95-5,4.7-5s4.7,2.18,4.7,5-1.95,5-4.7,5-4.7-2.18-4.7-5ZM981.8,601.6c0-2.08-1.34-3.79-3.4-3.79s-3.4,1.71-3.4,3.79,1.34,3.79,3.4,3.79,3.4-1.7,3.4-3.79Z"/>
    <rect class="st3" x="1002.29" y="529.52" width="1.36" height="77.15"/>
    <g class="st1">
      <g class="st1">
        <text class="st0" transform="translate(1022.25 561.78) scale(.95 1)"><tspan x="0" y="0">Emprendimiento e</tspan></text>
      </g>
      <g class="st1">
        <text class="st2" transform="translate(1022.25 589.39) scale(.95 1)"><tspan x="0" y="0">innovación</tspan></text>
      </g>
    </g>
  </g>
  <g>
    <g>
      <path class="st3" d="M292.99,570.56c0,6.31-2.36,11.3-7.09,14.95-4.22,3.22-9.44,4.83-15.67,4.83s-11.53-1.61-15.67-4.83c-4.68-3.58-7.01-8.57-7.01-14.95v-40.71h18.03v39.14c0,3.1,1.55,4.65,4.65,4.65s4.73-1.55,4.73-4.65v-39.14h18.03v40.71Z"/>
      <path class="st3" d="M348.81,589.75h-18.03l-16.78-27.5v27.5h-18.03v-59.9h16.86l17.95,28.82v-28.82h18.03v59.9h0Z"/>
      <path class="st3" d="M388.49,589.75h-36.21v-59.9h36.21v14.95h-18.18v7.73h17.24v14.95h-17.24v7.24h18.18v15.03Z"/>
      <path class="st3" d="M461.86,589.75h-18.11l-4.55-30.32-7.4,30.32h-10.25l-8.11-30.32-4.88,30.32h-18.11l10.55-59.9h18.51l6.84,26.41,7.09-26.41h18.18l10.22,59.9h.02Z"/>
      <path class="st3" d="M482.82,589.75h-18.11v-59.9h18.11v59.9Z"/>
      <path class="st3" d="M248.78,597.1v5.83c0,1.18.56,2.71,2.27,2.71s2.27-1.53,2.27-2.71v-5.83h1.22v6.03c0,2.2-1.51,3.72-3.49,3.72s-3.49-1.52-3.49-3.72v-6.03h1.22Z"/>
      <path class="st3" d="M257.2,597.1h1.6l4.97,7.82h.03v-7.82h1.22v9.52h-1.55l-5.02-7.82h-.03v7.82h-1.22v-9.52h0Z"/>
      <path class="st3" d="M267.85,597.1h1.22v9.52h-1.22v-9.52Z"/>
      <path class="st3" d="M270.67,597.1h1.41l2.65,7.74h.03l2.75-7.74h1.34l-3.55,9.52h-1.15l-3.48-9.52Z"/>
      <path class="st3" d="M280.44,597.1h5.82v1.21h-4.6v2.84h4.28v1.21h-4.28v3.05h4.83v1.21h-6.05v-9.52h0Z"/>
      <path class="st3" d="M288.74,597.1h3.17c2.3,0,2.89,1.47,2.89,2.66s-.85,2.35-2.22,2.51l2.56,4.34h-1.53l-2.29-4.19h-1.36v4.19h-1.22v-9.52h0ZM289.96,601.3h1.6c.97,0,1.94-.24,1.94-1.53s-.97-1.53-1.94-1.53h-1.6v3.07h0Z"/>
      <path class="st3" d="M297.3,604.63c.43.7,1.18,1.02,1.91,1.02.8,0,1.8-.54,1.8-1.59,0-2.19-4.44-.83-4.44-4.54,0-1.12.89-2.66,3.06-2.66.98,0,1.92.22,2.6,1.09l-.99.96c-.31-.5-.9-.84-1.6-.84-1.35,0-1.76.86-1.76,1.45,0,2.41,4.44.97,4.44,4.4,0,1.84-1.4,2.94-3.13,2.94-1.16,0-2.27-.42-2.88-1.32l1.01-.91h-.02Z"/>
      <path class="st3" d="M304.62,597.1h1.22v9.52h-1.22v-9.52Z"/>
      <path class="st3" d="M308.47,597.1h3.14c3.81,0,4.74,3,4.74,4.76,0,2.43-1.72,4.76-4.94,4.76h-2.94v-9.52ZM309.69,605.41h1.54c2.06,0,3.82-1.19,3.82-3.55,0-1.21-.6-3.55-3.53-3.55h-1.83v7.1h0Z"/>
      <path class="st3" d="M321.45,597.1h1.11l3.86,9.52h-1.43l-.91-2.35h-4.29l-.89,2.35h-1.43l3.97-9.52h.01ZM323.64,603.14l-1.68-4.37h-.02l-1.71,4.37h3.41,0Z"/>
      <path class="st3" d="M327.9,597.1h3.15c3.81,0,4.74,3,4.74,4.76,0,2.43-1.72,4.76-4.94,4.76h-2.94v-9.52h0ZM329.12,605.41h1.54c2.06,0,3.82-1.19,3.82-3.55,0-1.21-.6-3.55-3.53-3.55h-1.83v7.1h0Z"/>
      <path class="st3" d="M342.11,597.1h5.82v1.21h-4.6v2.84h4.28v1.21h-4.28v3.05h4.83v1.21h-6.05v-9.52h0Z"/>
      <path class="st3" d="M350.67,604.63c.43.7,1.19,1.02,1.91,1.02.8,0,1.79-.54,1.79-1.59,0-2.19-4.44-.83-4.44-4.54,0-1.12.89-2.66,3.06-2.66.98,0,1.92.22,2.6,1.09l-.99.96c-.31-.5-.91-.84-1.61-.84-1.35,0-1.76.86-1.76,1.45,0,2.41,4.44.97,4.44,4.4,0,1.84-1.4,2.94-3.13,2.94-1.16,0-2.27-.42-2.88-1.32l1-.91h0Z"/>
      <path class="st3" d="M359.88,598.31h-2.9v-1.21h7.03v1.21h-2.9v8.31h-1.22v-8.31h-.01Z"/>
      <path class="st3" d="M367.47,597.1h1.11l3.86,9.52h-1.43l-.9-2.35h-4.29l-.89,2.35h-1.43l3.98-9.52h0ZM369.66,603.14l-1.68-4.37h-.03l-1.71,4.37h3.42,0Z"/>
      <path class="st3" d="M374.84,598.31h-2.9v-1.21h7.03v1.21h-2.9v8.31h-1.22v-8.31h-.01Z"/>
      <path class="st3" d="M382.43,597.1h1.11l3.86,9.52h-1.43l-.9-2.35h-4.29l-.89,2.35h-1.43l3.97-9.52h0ZM384.62,603.14l-1.68-4.37h-.03l-1.71,4.37h3.42,0Z"/>
      <path class="st3" d="M389.08,597.1h1.22v8.31h4.14v1.21h-5.36v-9.52h0Z"/>
      <path class="st3" d="M400.05,597.1h3.14c3.81,0,4.74,3,4.74,4.76,0,2.43-1.72,4.76-4.94,4.76h-2.94v-9.52ZM401.28,605.41h1.54c2.06,0,3.82-1.19,3.82-3.55,0-1.21-.6-3.55-3.53-3.55h-1.83v7.1h0Z"/>
      <path class="st3" d="M410.21,597.1h5.82v1.21h-4.6v2.84h4.28v1.21h-4.28v3.05h4.83v1.21h-6.05v-9.52h0Z"/>
      <path class="st3" d="M422.47,597.1h1.82l2.86,7.21h.05l2.84-7.21h1.82v9.52h-1.22v-7.82h-.03l-3.04,7.82h-.81l-3.04-7.82h-.02v7.82h-1.22v-9.52h0Z"/>
      <path class="st3" d="M434.61,597.1h1.22v9.52h-1.22v-9.52Z"/>
      <path class="st3" d="M438.66,597.1h1.22v8.31h4.14v1.21h-5.36v-9.52h0Z"/>
      <path class="st3" d="M448.61,597.1h1.11l3.86,9.52h-1.43l-.9-2.35h-4.29l-.89,2.35h-1.43l3.97-9.52h0ZM450.8,603.14l-1.68-4.37h-.03l-1.71,4.37h3.42,0Z"/>
      <path class="st3" d="M462.94,601.3v4.69c-.88.56-2.32.87-3.41.87-3.06,0-4.83-2.3-4.83-5s1.95-5,4.7-5c1.66,0,2.66.47,3.36,1.24l-.87.98c-.74-.75-1.59-1.01-2.5-1.01-2.06,0-3.4,1.71-3.4,3.79s1.51,3.79,3.5,3.79c.85,0,1.67-.17,2.22-.5v-2.65h-2v-1.21h3.23,0Z"/>
      <path class="st3" d="M465.68,597.1h3.17c2.31,0,2.89,1.47,2.89,2.66s-.85,2.35-2.22,2.51l2.56,4.34h-1.53l-2.29-4.19h-1.36v4.19h-1.22v-9.52h0ZM466.91,601.3h1.6c.97,0,1.94-.24,1.94-1.53s-.97-1.53-1.94-1.53h-1.6v3.07h0Z"/>
      <path class="st3" d="M473.42,601.86c0-2.82,1.95-5,4.7-5s4.7,2.18,4.7,5-1.95,5-4.7,5-4.7-2.18-4.7-5ZM481.52,601.86c0-2.08-1.34-3.79-3.4-3.79s-3.4,1.71-3.4,3.79,1.34,3.79,3.4,3.79,3.4-1.7,3.4-3.79Z"/>
      <rect class="st3" x="502.01" y="529.78" width="1.36" height="77.15"/>
      <g class="st1">
        <g class="st1">
          <text class="st0" transform="translate(521.96 562.04) scale(.95 1)"><tspan x="0" y="0">Educación</tspan></text>
        </g>
        <g class="st1">
          <text class="st2" transform="translate(521.96 589.65) scale(.95 1)"><tspan x="0" y="0">Continua</tspan></text>
        </g>
      </g>
    </g>
    <g>
      <path class="st3" d="M1402.25,570.52c0,6.31-2.36,11.3-7.09,14.95-4.22,3.22-9.44,4.83-15.67,4.83s-11.53-1.61-15.67-4.83c-4.68-3.58-7.01-8.57-7.01-14.95v-40.71h18.03v39.14c0,3.1,1.55,4.65,4.65,4.65s4.73-1.55,4.73-4.65v-39.14h18.03v40.71Z"/>
      <path class="st3" d="M1458.07,589.71h-18.03l-16.78-27.5v27.5h-18.03v-59.9h16.86l17.95,28.82v-28.82h18.03v59.9h0Z"/>
      <path class="st3" d="M1497.75,589.71h-36.21v-59.9h36.21v14.95h-18.18v7.73h17.24v14.95h-17.24v7.24h18.18v15.03Z"/>
      <path class="st3" d="M1571.12,589.71h-18.11l-4.55-30.32-7.4,30.32h-10.25l-8.11-30.32-4.88,30.32h-18.11l10.55-59.9h18.51l6.84,26.41,7.09-26.41h18.18l10.22,59.9h.02Z"/>
      <path class="st3" d="M1592.07,589.71h-18.11v-59.9h18.11v59.9Z"/>
      <path class="st3" d="M1358.03,597.06v5.83c0,1.18.56,2.71,2.27,2.71s2.27-1.53,2.27-2.71v-5.83h1.22v6.03c0,2.2-1.51,3.72-3.49,3.72s-3.49-1.52-3.49-3.72v-6.03h1.22Z"/>
      <path class="st3" d="M1366.46,597.06h1.6l4.97,7.82h.03v-7.82h1.22v9.52h-1.55l-5.02-7.82h-.03v7.82h-1.22v-9.52h0Z"/>
      <path class="st3" d="M1377.11,597.06h1.22v9.52h-1.22v-9.52Z"/>
      <path class="st3" d="M1379.92,597.06h1.41l2.65,7.74h.03l2.75-7.74h1.34l-3.55,9.52h-1.15l-3.48-9.52Z"/>
      <path class="st3" d="M1389.7,597.06h5.82v1.21h-4.6v2.84h4.28v1.21h-4.28v3.05h4.83v1.21h-6.05v-9.52h0Z"/>
      <path class="st3" d="M1397.99,597.06h3.17c2.3,0,2.89,1.47,2.89,2.66s-.85,2.35-2.22,2.51l2.56,4.34h-1.53l-2.29-4.19h-1.36v4.19h-1.22v-9.52h0ZM1399.21,601.26h1.6c.97,0,1.94-.24,1.94-1.53s-.97-1.53-1.94-1.53h-1.6v3.07h0Z"/>
      <path class="st3" d="M1406.55,604.59c.43.7,1.18,1.02,1.91,1.02.8,0,1.8-.54,1.8-1.59,0-2.19-4.44-.83-4.44-4.54,0-1.12.89-2.66,3.06-2.66.98,0,1.92.22,2.6,1.09l-.99.96c-.31-.5-.9-.84-1.6-.84-1.35,0-1.76.86-1.76,1.45,0,2.41,4.44.97,4.44,4.4,0,1.84-1.4,2.94-3.13,2.94-1.16,0-2.27-.42-2.88-1.32l1.01-.91h-.02Z"/>
      <path class="st3" d="M1413.88,597.06h1.22v9.52h-1.22v-9.52Z"/>
      <path class="st3" d="M1417.73,597.06h3.14c3.81,0,4.74,3,4.74,4.76,0,2.43-1.72,4.76-4.94,4.76h-2.94v-9.52h0ZM1418.95,605.37h1.54c2.06,0,3.82-1.19,3.82-3.55,0-1.21-.6-3.55-3.53-3.55h-1.83v7.1Z"/>
      <path class="st3" d="M1430.71,597.06h1.11l3.86,9.52h-1.43l-.91-2.35h-4.29l-.89,2.35h-1.43l3.97-9.52h.01ZM1432.9,603.1l-1.68-4.37h-.02l-1.71,4.37h3.41Z"/>
      <path class="st3" d="M1437.16,597.06h3.15c3.81,0,4.74,3,4.74,4.76,0,2.43-1.72,4.76-4.94,4.76h-2.94v-9.52h-.01ZM1438.38,605.37h1.54c2.06,0,3.82-1.19,3.82-3.55,0-1.21-.6-3.55-3.53-3.55h-1.83v7.1Z"/>
      <path class="st3" d="M1451.36,597.06h5.82v1.21h-4.6v2.84h4.28v1.21h-4.28v3.05h4.83v1.21h-6.05v-9.52h0Z"/>
      <path class="st3" d="M1459.92,604.59c.43.7,1.19,1.02,1.91,1.02.8,0,1.79-.54,1.79-1.59,0-2.19-4.44-.83-4.44-4.54,0-1.12.89-2.66,3.06-2.66.98,0,1.92.22,2.6,1.09l-.99.96c-.31-.5-.91-.84-1.61-.84-1.35,0-1.76.86-1.76,1.45,0,2.41,4.44.97,4.44,4.4,0,1.84-1.4,2.94-3.13,2.94-1.16,0-2.27-.42-2.88-1.32l1-.91h0Z"/>
      <path class="st3" d="M1469.14,598.27h-2.9v-1.21h7.03v1.21h-2.9v8.31h-1.22v-8.31h-.01Z"/>
      <path class="st3" d="M1476.73,597.06h1.11l3.86,9.52h-1.43l-.9-2.35h-4.29l-.89,2.35h-1.43l3.98-9.52h0ZM1478.92,603.1l-1.68-4.37h-.03l-1.71,4.37h3.42Z"/>
      <path class="st3" d="M1484.09,598.27h-2.9v-1.21h7.03v1.21h-2.9v8.31h-1.22v-8.31h-.01Z"/>
      <path class="st3" d="M1491.69,597.06h1.11l3.86,9.52h-1.43l-.9-2.35h-4.29l-.89,2.35h-1.43l3.97-9.52h0ZM1493.88,603.1l-1.68-4.37h-.03l-1.71,4.37h3.42Z"/>
      <path class="st3" d="M1498.34,597.06h1.22v8.31h4.14v1.21h-5.36v-9.52Z"/>
      <path class="st3" d="M1509.31,597.06h3.14c3.81,0,4.74,3,4.74,4.76,0,2.43-1.72,4.76-4.94,4.76h-2.94v-9.52h0ZM1510.53,605.37h1.54c2.06,0,3.82-1.19,3.82-3.55,0-1.21-.6-3.55-3.53-3.55h-1.83v7.1Z"/>
      <path class="st3" d="M1519.47,597.06h5.82v1.21h-4.6v2.84h4.28v1.21h-4.28v3.05h4.83v1.21h-6.05v-9.52h0Z"/>
      <path class="st3" d="M1531.72,597.06h1.82l2.86,7.21h.05l2.84-7.21h1.82v9.52h-1.22v-7.82h-.03l-3.04,7.82h-.81l-3.04-7.82h-.02v7.82h-1.22v-9.52h0Z"/>
      <path class="st3" d="M1543.86,597.06h1.22v9.52h-1.22v-9.52Z"/>
      <path class="st3" d="M1547.92,597.06h1.22v8.31h4.14v1.21h-5.36v-9.52Z"/>
      <path class="st3" d="M1557.87,597.06h1.11l3.86,9.52h-1.43l-.9-2.35h-4.29l-.89,2.35h-1.43l3.97-9.52h0ZM1560.06,603.1l-1.68-4.37h-.03l-1.71,4.37h3.42Z"/>
      <path class="st3" d="M1572.2,601.26v4.69c-.88.56-2.32.87-3.41.87-3.06,0-4.83-2.3-4.83-5s1.95-5,4.7-5c1.66,0,2.66.47,3.36,1.24l-.87.98c-.74-.75-1.59-1.01-2.5-1.01-2.06,0-3.4,1.71-3.4,3.79s1.51,3.79,3.5,3.79c.85,0,1.67-.17,2.22-.5v-2.65h-2v-1.21h3.23Z"/>
      <path class="st3" d="M1574.94,597.06h3.17c2.31,0,2.89,1.47,2.89,2.66s-.85,2.35-2.22,2.51l2.56,4.34h-1.53l-2.29-4.19h-1.36v4.19h-1.22v-9.52h0ZM1576.16,601.26h1.6c.97,0,1.94-.24,1.94-1.53s-.97-1.53-1.94-1.53h-1.6v3.07h0Z"/>
      <path class="st3" d="M1582.67,601.82c0-2.82,1.95-5,4.7-5s4.7,2.18,4.7,5-1.95,5-4.7,5-4.7-2.18-4.7-5ZM1590.77,601.82c0-2.08-1.34-3.79-3.4-3.79s-3.4,1.71-3.4,3.79,1.34,3.79,3.4,3.79,3.4-1.7,3.4-3.79Z"/>
      <rect class="st3" x="1611.26" y="529.74" width="1.36" height="77.15"/>
      <g class="st1">
        <g class="st1">
          <text class="st0" transform="translate(1631.22 562) scale(.95 1)"><tspan x="0" y="0">Educación</tspan></text>
        </g>
        <g class="st1">
          <text class="st2" transform="translate(1631.22 589.61) scale(.95 1)"><tspan x="0" y="0">Ciudadana</tspan></text>
        </g>
      </g>
    </g>
  </g>
  <line class="st4" x1="703.3" y1="525.14" x2="703.3" y2="610.35"/>
  <line class="st4" x1="1312.24" y1="525.14" x2="1312.24" y2="610.35"/>
</svg>